<svg xmlns="http://www.w3.org/2000/svg" viewBox="0 0 600 400" width="600" height="400" role="img" aria-labelledby="t">
  <title id="t">Ilustración de un edificio de viviendas</title>
  <defs>
    <radialGradient id="glowA" cx="82%" cy="12%" r="60%">
      <stop offset="0" stop-color="#F5B700" stop-opacity=".22"/>
      <stop offset="1" stop-color="#F5B700" stop-opacity="0"/>
    </radialGradient>
    <radialGradient id="glowB" cx="8%" cy="96%" r="65%">
      <stop offset="0" stop-color="#2563EB" stop-opacity=".32"/>
      <stop offset="1" stop-color="#2563EB" stop-opacity="0"/>
    </radialGradient>
    <pattern id="dots" width="24" height="24" patternUnits="userSpaceOnUse">
      <circle cx="2" cy="2" r="1.4" fill="#fff" fill-opacity=".07"/>
    </pattern>
  </defs>
  <rect width="600" height="400" rx="24" fill="#102A43"/>
  <rect width="600" height="400" rx="24" fill="url(#dots)"/>
  <rect width="600" height="400" rx="24" fill="url(#glowA)"/>
  <rect width="600" height="400" rx="24" fill="url(#glowB)"/>
  <line x1="50" y1="350" x2="550" y2="350" stroke="#243B53" stroke-width="4" stroke-linecap="round"/>

  <rect x="92" y="170" width="98" height="180" rx="6" fill="#D9E2EC"/>
  <rect x="410" y="130" width="104" height="220" rx="6" fill="#D9E2EC"/>
  <rect x="200" y="60" width="200" height="290" rx="8" fill="#F7F9FC"/>
  <rect x="219" y="82" width="30" height="24" rx="3" fill="#BCCCDC"/>
  <rect x="263" y="82" width="30" height="24" rx="3" fill="#F5B700"/>
  <rect x="307" y="82" width="30" height="24" rx="3" fill="#BCCCDC"/>
  <rect x="351" y="82" width="30" height="24" rx="3" fill="#BCCCDC"/>
  <rect x="219" y="120" width="30" height="24" rx="3" fill="#BCCCDC"/>
  <rect x="263" y="120" width="30" height="24" rx="3" fill="#BCCCDC"/>
  <rect x="307" y="120" width="30" height="24" rx="3" fill="#BCCCDC"/>
  <rect x="351" y="120" width="30" height="24" rx="3" fill="#F5B700"/>
  <rect x="219" y="158" width="30" height="24" rx="3" fill="#F5B700"/>
  <rect x="263" y="158" width="30" height="24" rx="3" fill="#BCCCDC"/>
  <rect x="307" y="158" width="30" height="24" rx="3" fill="#F5B700"/>
  <rect x="351" y="158" width="30" height="24" rx="3" fill="#BCCCDC"/>
  <rect x="219" y="196" width="30" height="24" rx="3" fill="#BCCCDC"/>
  <rect x="263" y="196" width="30" height="24" rx="3" fill="#F5B700"/>
  <rect x="307" y="196" width="30" height="24" rx="3" fill="#BCCCDC"/>
  <rect x="351" y="196" width="30" height="24" rx="3" fill="#BCCCDC"/>
  <rect x="219" y="234" width="30" height="24" rx="3" fill="#BCCCDC"/>
  <rect x="263" y="234" width="30" height="24" rx="3" fill="#BCCCDC"/>
  <rect x="307" y="234" width="30" height="24" rx="3" fill="#BCCCDC"/>
  <rect x="351" y="234" width="30" height="24" rx="3" fill="#F5B700"/>
  <rect x="219" y="272" width="30" height="24" rx="3" fill="#F5B700"/>
  <rect x="263" y="272" width="30" height="24" rx="3" fill="#BCCCDC"/>
  <rect x="307" y="272" width="30" height="24" rx="3" fill="#BCCCDC"/>
  <rect x="351" y="272" width="30" height="24" rx="3" fill="#BCCCDC"/>
  <rect x="108" y="190" width="26" height="22" rx="3" fill="#829AB1" opacity=".7"/>
  <rect x="148" y="190" width="26" height="22" rx="3" fill="#829AB1" opacity=".7"/>
  <rect x="108" y="228" width="26" height="22" rx="3" fill="#829AB1" opacity=".7"/>
  <rect x="148" y="228" width="26" height="22" rx="3" fill="#829AB1" opacity=".7"/>
  <rect x="108" y="266" width="26" height="22" rx="3" fill="#829AB1" opacity=".7"/>
  <rect x="148" y="266" width="26" height="22" rx="3" fill="#829AB1" opacity=".7"/>
  <rect x="108" y="304" width="26" height="22" rx="3" fill="#829AB1" opacity=".7"/>
  <rect x="148" y="304" width="26" height="22" rx="3" fill="#829AB1" opacity=".7"/>
  <rect x="428" y="150" width="26" height="22" rx="3" fill="#829AB1" opacity=".7"/>
  <rect x="470" y="150" width="26" height="22" rx="3" fill="#829AB1" opacity=".7"/>
  <rect x="428" y="188" width="26" height="22" rx="3" fill="#829AB1" opacity=".7"/>
  <rect x="470" y="188" width="26" height="22" rx="3" fill="#829AB1" opacity=".7"/>
  <rect x="428" y="226" width="26" height="22" rx="3" fill="#829AB1" opacity=".7"/>
  <rect x="470" y="226" width="26" height="22" rx="3" fill="#829AB1" opacity=".7"/>
  <rect x="428" y="264" width="26" height="22" rx="3" fill="#829AB1" opacity=".7"/>
  <rect x="470" y="264" width="26" height="22" rx="3" fill="#829AB1" opacity=".7"/>
  <rect x="428" y="302" width="26" height="22" rx="3" fill="#829AB1" opacity=".7"/>
  <rect x="470" y="302" width="26" height="22" rx="3" fill="#829AB1" opacity=".7"/>
  <rect x="278" y="306" width="44" height="44" rx="4" fill="#486581"/>
  <circle cx="488" cy="82" r="30" fill="#F5B700"/>
  <path d="M3 -13 L-8 2 L-1 2 L-3 13 L8 -2 L1 -2 Z" transform="translate(488 82) scale(2.00)" fill="#102A43"/>

</svg>
